<mxfile host="app.diagrams.net" modified="2023-12-02T11:02:26.610Z" agent="Mozilla/5.0 (Windows NT 10.0; Win64; x64) AppleWebKit/537.36 (KHTML, like Gecko) Chrome/118.0.0.0 Safari/537.36 OPR/104.0.0.0" etag="KIcrtpYD1shpGy8qY4lb" version="22.1.5" type="device">
  <diagram name="Страница 1" id="L-gQZka6U81_ra8ebs9R">
    <mxGraphModel dx="844" dy="483" grid="1" gridSize="10" guides="1" tooltips="1" connect="1" arrows="1" fold="1" page="1" pageScale="1" pageWidth="827" pageHeight="1169" math="0" shadow="0">
      <root>
        <mxCell id="0" />
        <mxCell id="1" parent="0" />
        <mxCell id="hEfuXO3asH8lIggXFhz3-9" value="Функция отправки данных в шину CAN" style="text;html=1;strokeColor=#6c8ebf;fillColor=#dae8fc;align=center;verticalAlign=middle;whiteSpace=wrap;rounded=0;" parent="1" vertex="1">
          <mxGeometry x="70" y="20" width="190" height="116" as="geometry" />
        </mxCell>
        <mxCell id="hEfuXO3asH8lIggXFhz3-10" value="HAL_CAN_AddTxMessage - библиотечная функция отправки сообщения в шину CAN&lt;br&gt;CAN_TxHeaderTypeDef&amp;nbsp; - библиотечная структура необходимая функции HAL_CAN_AddTxMessage&amp;nbsp;&lt;br&gt;HAL_CAN_Start - библиотечная функция запуска шины CAN&lt;br&gt;HAL_CAN_ActivateNotification - библиотечная функция включения уведомлений шины CAN" style="text;html=1;strokeColor=#82b366;fillColor=#d5e8d4;align=center;verticalAlign=middle;whiteSpace=wrap;rounded=0;" parent="1" vertex="1">
          <mxGeometry x="330" y="20" width="570" height="66" as="geometry" />
        </mxCell>
        <mxCell id="S3K7yjeRhsTaSC5J15aU-20" value="" style="group" vertex="1" connectable="0" parent="1">
          <mxGeometry x="70.00000000000006" y="150" width="600" height="743" as="geometry" />
        </mxCell>
        <mxCell id="S3K7yjeRhsTaSC5J15aU-19" value="&lt;p style=&quot;border-color: var(--border-color); font-family: Consolas; font-size: 13.3333px; margin: 0px;&quot;&gt;&lt;br&gt;&lt;/p&gt;" style="rounded=0;whiteSpace=wrap;html=1;dashed=1;" vertex="1" parent="S3K7yjeRhsTaSC5J15aU-20">
          <mxGeometry width="600" height="743" as="geometry" />
        </mxCell>
        <mxCell id="hEfuXO3asH8lIggXFhz3-28" value="да" style="text;html=1;align=center;verticalAlign=middle;resizable=0;points=[];autosize=1;strokeColor=none;fillColor=none;fontSize=15;" parent="S3K7yjeRhsTaSC5J15aU-20" vertex="1">
          <mxGeometry x="191.26" y="243.5" width="40" height="30" as="geometry" />
        </mxCell>
        <mxCell id="hEfuXO3asH8lIggXFhz3-29" value="нет" style="text;html=1;align=center;verticalAlign=middle;resizable=0;points=[];autosize=1;strokeColor=none;fillColor=none;fontSize=15;" parent="S3K7yjeRhsTaSC5J15aU-20" vertex="1">
          <mxGeometry x="368.76" y="243.5" width="50" height="30" as="geometry" />
        </mxCell>
        <mxCell id="hEfuXO3asH8lIggXFhz3-72" value="&lt;p class=&quot;MsoNormal&quot;&gt;error canTXMessage(IDE, canID, DLC, *data)&lt;/p&gt;" style="ellipse;whiteSpace=wrap;html=1;" parent="S3K7yjeRhsTaSC5J15aU-20" vertex="1">
          <mxGeometry x="75.68999999999994" y="23" width="448.62" height="90" as="geometry" />
        </mxCell>
        <mxCell id="hEfuXO3asH8lIggXFhz3-74" value="Конец" style="ellipse;whiteSpace=wrap;html=1;" parent="S3K7yjeRhsTaSC5J15aU-20" vertex="1">
          <mxGeometry x="264.99999999999994" y="683" width="70" height="30" as="geometry" />
        </mxCell>
        <mxCell id="S3K7yjeRhsTaSC5J15aU-1" value="&lt;div style=&quot;background-color:#ffffff;padding:0px 0px 0px 2px;&quot;&gt;&lt;div style=&quot;font-family: Consolas; font-size: 10pt;&quot;&gt;&lt;p style=&quot;margin:0;&quot;&gt;CAN_TxHeaderTypeDef pHeader = 0;&lt;/p&gt;&lt;p style=&quot;margin:0;&quot;&gt;&lt;span style=&quot;&quot;&gt;&amp;nbsp;&amp;nbsp;&amp;nbsp;&amp;nbsp;&lt;/span&gt;TxMailbox = 0&lt;/p&gt;&lt;p style=&quot;margin:0;&quot;&gt;error = 0&lt;br&gt;&lt;/p&gt;&lt;/div&gt;&lt;/div&gt;" style="rounded=0;whiteSpace=wrap;html=1;" vertex="1" parent="S3K7yjeRhsTaSC5J15aU-20">
          <mxGeometry x="172.84999999999997" y="143" width="254.31" height="50" as="geometry" />
        </mxCell>
        <mxCell id="S3K7yjeRhsTaSC5J15aU-2" value="" style="edgeStyle=orthogonalEdgeStyle;rounded=0;orthogonalLoop=1;jettySize=auto;html=1;" edge="1" parent="S3K7yjeRhsTaSC5J15aU-20" source="hEfuXO3asH8lIggXFhz3-72" target="S3K7yjeRhsTaSC5J15aU-1">
          <mxGeometry relative="1" as="geometry" />
        </mxCell>
        <mxCell id="S3K7yjeRhsTaSC5J15aU-3" value="IDE == 0" style="rhombus;whiteSpace=wrap;html=1;" vertex="1" parent="S3K7yjeRhsTaSC5J15aU-20">
          <mxGeometry x="231.26" y="220" width="137.5" height="100" as="geometry" />
        </mxCell>
        <mxCell id="S3K7yjeRhsTaSC5J15aU-8" value="" style="edgeStyle=orthogonalEdgeStyle;rounded=0;orthogonalLoop=1;jettySize=auto;html=1;" edge="1" parent="S3K7yjeRhsTaSC5J15aU-20" source="S3K7yjeRhsTaSC5J15aU-1" target="S3K7yjeRhsTaSC5J15aU-3">
          <mxGeometry relative="1" as="geometry" />
        </mxCell>
        <mxCell id="S3K7yjeRhsTaSC5J15aU-4" value="&lt;div style=&quot;padding: 0px 0px 0px 2px;&quot;&gt;&lt;div style=&quot;font-family: Consolas; font-size: 10pt;&quot;&gt;&lt;div style=&quot;padding: 0px 0px 0px 2px;&quot;&gt;&lt;div style=&quot;font-size: 10pt;&quot;&gt;&lt;p style=&quot;margin: 0px;&quot;&gt;pHeader.StdId = ID&lt;/p&gt;&lt;p style=&quot;margin: 0px;&quot;&gt;pHeader.IDE = CAN_ID_STD&lt;/p&gt;&lt;/div&gt;&lt;/div&gt;&lt;/div&gt;&lt;/div&gt;" style="rounded=0;whiteSpace=wrap;html=1;" vertex="1" parent="S3K7yjeRhsTaSC5J15aU-20">
          <mxGeometry x="368.75999999999993" y="343.5" width="190" height="60" as="geometry" />
        </mxCell>
        <mxCell id="S3K7yjeRhsTaSC5J15aU-7" style="edgeStyle=orthogonalEdgeStyle;rounded=0;orthogonalLoop=1;jettySize=auto;html=1;exitX=1;exitY=0.5;exitDx=0;exitDy=0;entryX=0.5;entryY=0;entryDx=0;entryDy=0;" edge="1" parent="S3K7yjeRhsTaSC5J15aU-20" source="S3K7yjeRhsTaSC5J15aU-3" target="S3K7yjeRhsTaSC5J15aU-4">
          <mxGeometry relative="1" as="geometry" />
        </mxCell>
        <mxCell id="S3K7yjeRhsTaSC5J15aU-5" value="&lt;div style=&quot;padding: 0px 0px 0px 2px;&quot;&gt;&lt;div style=&quot;font-family: Consolas; font-size: 10pt;&quot;&gt;&lt;div style=&quot;padding: 0px 0px 0px 2px;&quot;&gt;&lt;div style=&quot;font-size: 10pt;&quot;&gt;&lt;p style=&quot;margin: 0px;&quot;&gt;pHeader.ExtId = ID&lt;/p&gt;&lt;p style=&quot;margin: 0px;&quot;&gt;pHeader.IDE =&amp;nbsp;CAN_ID_EXT&lt;/p&gt;&lt;/div&gt;&lt;/div&gt;&lt;/div&gt;&lt;/div&gt;" style="rounded=0;whiteSpace=wrap;html=1;" vertex="1" parent="S3K7yjeRhsTaSC5J15aU-20">
          <mxGeometry x="41.25999999999999" y="343.5" width="190" height="60" as="geometry" />
        </mxCell>
        <mxCell id="S3K7yjeRhsTaSC5J15aU-6" style="edgeStyle=orthogonalEdgeStyle;rounded=0;orthogonalLoop=1;jettySize=auto;html=1;exitX=0;exitY=0.5;exitDx=0;exitDy=0;entryX=0.5;entryY=0;entryDx=0;entryDy=0;" edge="1" parent="S3K7yjeRhsTaSC5J15aU-20" source="S3K7yjeRhsTaSC5J15aU-3" target="S3K7yjeRhsTaSC5J15aU-5">
          <mxGeometry relative="1" as="geometry" />
        </mxCell>
        <mxCell id="S3K7yjeRhsTaSC5J15aU-12" value="&lt;div style=&quot;padding: 0px 0px 0px 2px;&quot;&gt;&lt;div style=&quot;font-family: Consolas; font-size: 10pt;&quot;&gt;&lt;div style=&quot;padding: 0px 0px 0px 2px;&quot;&gt;&lt;div style=&quot;font-size: 10pt; line-height: 20%;&quot;&gt;&lt;p style=&quot;background-image: initial; background-position: initial; background-size: initial; background-repeat: initial; background-attachment: initial; background-origin: initial; background-clip: initial; line-height: 20%;&quot; align=&quot;center&quot; class=&quot;MsoNormal&quot;&gt;pHeader.RTR = CAN_RTR_DATA&lt;/p&gt;&lt;p style=&quot;background-image: initial; background-position: initial; background-size: initial; background-repeat: initial; background-attachment: initial; background-origin: initial; background-clip: initial; line-height: 20%;&quot; align=&quot;center&quot; class=&quot;MsoNormal&quot;&gt;&lt;span style=&quot;font-size: 10pt;&quot; lang=&quot;EN-US&quot;&gt;pHeader.DLC = DLC&lt;/span&gt;&lt;/p&gt;&lt;p style=&quot;background-image: initial; background-position: initial; background-size: initial; background-repeat: initial; background-attachment: initial; background-origin: initial; background-clip: initial; line-height: 20%;&quot; align=&quot;center&quot; class=&quot;MsoNormal&quot;&gt;&lt;span style=&quot;font-size: 10pt;&quot; lang=&quot;EN-US&quot;&gt;error = HAL_CAN_AddTxMessage(&amp;amp;hcan, &amp;amp;pHeader, data,&amp;nbsp;&lt;/span&gt;&lt;span style=&quot;background-color: initial; font-size: 10pt;&quot;&gt;&amp;amp;TxMailbox)&lt;/span&gt;&lt;/p&gt;&lt;/div&gt;&lt;/div&gt;&lt;/div&gt;&lt;/div&gt;" style="rounded=0;whiteSpace=wrap;html=1;" vertex="1" parent="S3K7yjeRhsTaSC5J15aU-20">
          <mxGeometry x="60.34999999999991" y="484" width="479.3" height="60" as="geometry" />
        </mxCell>
        <mxCell id="S3K7yjeRhsTaSC5J15aU-13" style="edgeStyle=orthogonalEdgeStyle;rounded=0;orthogonalLoop=1;jettySize=auto;html=1;exitX=0.5;exitY=1;exitDx=0;exitDy=0;entryX=0.5;entryY=0;entryDx=0;entryDy=0;" edge="1" parent="S3K7yjeRhsTaSC5J15aU-20" source="S3K7yjeRhsTaSC5J15aU-4" target="S3K7yjeRhsTaSC5J15aU-12">
          <mxGeometry relative="1" as="geometry" />
        </mxCell>
        <mxCell id="S3K7yjeRhsTaSC5J15aU-15" style="edgeStyle=orthogonalEdgeStyle;rounded=0;orthogonalLoop=1;jettySize=auto;html=1;exitX=0.5;exitY=1;exitDx=0;exitDy=0;entryX=0.5;entryY=0;entryDx=0;entryDy=0;" edge="1" parent="S3K7yjeRhsTaSC5J15aU-20" source="S3K7yjeRhsTaSC5J15aU-5" target="S3K7yjeRhsTaSC5J15aU-12">
          <mxGeometry relative="1" as="geometry" />
        </mxCell>
        <mxCell id="S3K7yjeRhsTaSC5J15aU-18" value="" style="edgeStyle=orthogonalEdgeStyle;rounded=0;orthogonalLoop=1;jettySize=auto;html=1;" edge="1" parent="S3K7yjeRhsTaSC5J15aU-20" source="S3K7yjeRhsTaSC5J15aU-16" target="hEfuXO3asH8lIggXFhz3-74">
          <mxGeometry relative="1" as="geometry" />
        </mxCell>
        <mxCell id="S3K7yjeRhsTaSC5J15aU-16" value="Выходное значение:&amp;nbsp;&lt;br&gt;error&amp;nbsp;" style="shape=parallelogram;perimeter=parallelogramPerimeter;whiteSpace=wrap;html=1;fixedSize=1;" vertex="1" parent="S3K7yjeRhsTaSC5J15aU-20">
          <mxGeometry x="211.4999999999999" y="583" width="177" height="60" as="geometry" />
        </mxCell>
        <mxCell id="S3K7yjeRhsTaSC5J15aU-17" value="" style="edgeStyle=orthogonalEdgeStyle;rounded=0;orthogonalLoop=1;jettySize=auto;html=1;" edge="1" parent="S3K7yjeRhsTaSC5J15aU-20" source="S3K7yjeRhsTaSC5J15aU-12" target="S3K7yjeRhsTaSC5J15aU-16">
          <mxGeometry relative="1" as="geometry" />
        </mxCell>
        <mxCell id="S3K7yjeRhsTaSC5J15aU-21" value="" style="group" vertex="1" connectable="0" parent="1">
          <mxGeometry x="680" y="150" width="220" height="210" as="geometry" />
        </mxCell>
        <mxCell id="uR4bCjWxHIVjI39woadX-1" value="&lt;div style=&quot;background-color:#ffffff;padding:0px 0px 0px 2px;&quot;&gt;&lt;div style=&quot;font-family: Consolas; font-size: 10pt;&quot;&gt;&lt;p style=&quot;margin:0;&quot;&gt;typedef &lt;span style=&quot;color:#7f0055;font-weight:bold;&quot;&gt;union&lt;/span&gt; {&lt;/p&gt;&lt;p style=&quot;margin:0;&quot;&gt;&lt;span style=&quot;font-size: 10pt; color: rgb(127, 0, 85); font-weight: bold;&quot;&gt;&amp;nbsp; &amp;nbsp; struct&lt;/span&gt;&lt;span style=&quot;font-size: 10pt;&quot;&gt;{&lt;/span&gt;&lt;/p&gt;&lt;p style=&quot;margin:0;&quot;&gt;&lt;span style=&quot;white-space: pre;&quot;&gt;&amp;nbsp;&amp;nbsp;&amp;nbsp;&amp;nbsp;&lt;/span&gt;&lt;span style=&quot;white-space: pre;&quot;&gt;&amp;nbsp;&amp;nbsp;&amp;nbsp;&lt;span style=&quot;white-space: pre;&quot;&gt;&#x9;&lt;/span&gt;&lt;/span&gt;&lt;span style=&quot;color:#005032;&quot;&gt;int32_t&lt;/span&gt;&amp;nbsp;&lt;font color=&quot;#0000c0&quot;&gt;SensorVal&lt;/font&gt;;&lt;/p&gt;&lt;p style=&quot;margin: 0px;&quot;&gt;&lt;span style=&quot;color:#005032;&quot;&gt;&lt;span style=&quot;white-space: pre;&quot;&gt;&#x9;&lt;/span&gt;int16_t&lt;/span&gt; &lt;span style=&quot;color:#0000c0;&quot;&gt;Weight&lt;/span&gt;;&lt;/p&gt;&lt;p style=&quot;margin:0;&quot;&gt;&lt;span style=&quot;white-space: pre;&quot;&gt;&amp;nbsp;&amp;nbsp;&amp;nbsp;&amp;nbsp;&lt;/span&gt;&lt;span style=&quot;white-space: pre;&quot;&gt;&amp;nbsp;&amp;nbsp;&amp;nbsp;&amp;nbsp;&lt;/span&gt;&lt;span style=&quot;color:#005032;&quot;&gt;int16_t&lt;/span&gt; &lt;span style=&quot;color:#0000c0;background-color:#d4d4d4;&quot;&gt;Temperature&lt;/span&gt;;&lt;/p&gt;&lt;p style=&quot;margin:0;&quot;&gt;&lt;span style=&quot;white-space: pre;&quot;&gt;&amp;nbsp;&amp;nbsp;&amp;nbsp;&amp;nbsp;&lt;/span&gt;} &lt;span style=&quot;color:#0000c0;&quot;&gt;Data&lt;/span&gt;;&lt;/p&gt;&lt;p style=&quot;margin:0;&quot;&gt;&lt;span style=&quot;white-space: pre;&quot;&gt;&amp;nbsp;&amp;nbsp;&amp;nbsp;&amp;nbsp;&lt;/span&gt;&lt;span style=&quot;color:#005032;&quot;&gt;uint8_t&lt;/span&gt; &lt;span style=&quot;color:#0000c0;&quot;&gt;RawData&lt;/span&gt;[8];&lt;/p&gt;&lt;p style=&quot;margin:0;&quot;&gt;} &lt;span style=&quot;color:#005032;&quot;&gt;OutData&lt;/span&gt;;&lt;/p&gt;&lt;/div&gt;&lt;/div&gt;" style="rounded=0;whiteSpace=wrap;html=1;align=left;" parent="S3K7yjeRhsTaSC5J15aU-21" vertex="1">
          <mxGeometry y="50" width="220" height="160" as="geometry" />
        </mxCell>
        <mxCell id="uR4bCjWxHIVjI39woadX-2" value="Объединение данных с датчика" style="text;html=1;strokeColor=#6c8ebf;fillColor=#dae8fc;align=center;verticalAlign=middle;whiteSpace=wrap;rounded=0;" parent="S3K7yjeRhsTaSC5J15aU-21" vertex="1">
          <mxGeometry width="220" height="50" as="geometry" />
        </mxCell>
        <mxCell id="S3K7yjeRhsTaSC5J15aU-45" value="" style="group" vertex="1" connectable="0" parent="1">
          <mxGeometry x="195.0150000000001" y="920" width="350" height="520" as="geometry" />
        </mxCell>
        <mxCell id="S3K7yjeRhsTaSC5J15aU-23" value="&lt;p style=&quot;border-color: var(--border-color); font-family: Consolas; font-size: 13.3333px; margin: 0px;&quot;&gt;&lt;br&gt;&lt;/p&gt;" style="rounded=0;whiteSpace=wrap;html=1;dashed=1;" vertex="1" parent="S3K7yjeRhsTaSC5J15aU-45">
          <mxGeometry width="350" height="520" as="geometry" />
        </mxCell>
        <mxCell id="S3K7yjeRhsTaSC5J15aU-26" value="&lt;p class=&quot;MsoNormal&quot;&gt;error canStart()&lt;/p&gt;" style="ellipse;whiteSpace=wrap;html=1;" vertex="1" parent="S3K7yjeRhsTaSC5J15aU-45">
          <mxGeometry x="117.84500000000003" y="20" width="114.31" height="43" as="geometry" />
        </mxCell>
        <mxCell id="S3K7yjeRhsTaSC5J15aU-27" value="Конец" style="ellipse;whiteSpace=wrap;html=1;" vertex="1" parent="S3K7yjeRhsTaSC5J15aU-45">
          <mxGeometry x="139.9849999999999" y="470" width="70" height="30" as="geometry" />
        </mxCell>
        <mxCell id="S3K7yjeRhsTaSC5J15aU-28" value="&lt;div style=&quot;background-color:#ffffff;padding:0px 0px 0px 2px;&quot;&gt;&lt;div style=&quot;font-family: Consolas; font-size: 10pt;&quot;&gt;&lt;p style=&quot;margin:0;&quot;&gt;&lt;span style=&quot;font-size: 10pt;&quot;&gt;error = 0&lt;/span&gt;&lt;br&gt;&lt;/p&gt;&lt;/div&gt;&lt;/div&gt;" style="rounded=0;whiteSpace=wrap;html=1;" vertex="1" parent="S3K7yjeRhsTaSC5J15aU-45">
          <mxGeometry x="47.83499999999992" y="103" width="254.31" height="50" as="geometry" />
        </mxCell>
        <mxCell id="S3K7yjeRhsTaSC5J15aU-29" value="" style="edgeStyle=orthogonalEdgeStyle;rounded=0;orthogonalLoop=1;jettySize=auto;html=1;" edge="1" parent="S3K7yjeRhsTaSC5J15aU-45" source="S3K7yjeRhsTaSC5J15aU-26" target="S3K7yjeRhsTaSC5J15aU-28">
          <mxGeometry relative="1" as="geometry" />
        </mxCell>
        <mxCell id="S3K7yjeRhsTaSC5J15aU-39" value="" style="edgeStyle=orthogonalEdgeStyle;rounded=0;orthogonalLoop=1;jettySize=auto;html=1;" edge="1" parent="S3K7yjeRhsTaSC5J15aU-45" source="S3K7yjeRhsTaSC5J15aU-40" target="S3K7yjeRhsTaSC5J15aU-27">
          <mxGeometry relative="1" as="geometry" />
        </mxCell>
        <mxCell id="S3K7yjeRhsTaSC5J15aU-40" value="Выходное значение:&amp;nbsp;&lt;br&gt;error&amp;nbsp;" style="shape=parallelogram;perimeter=parallelogramPerimeter;whiteSpace=wrap;html=1;fixedSize=1;" vertex="1" parent="S3K7yjeRhsTaSC5J15aU-45">
          <mxGeometry x="86.48499999999984" y="370" width="177" height="60" as="geometry" />
        </mxCell>
        <mxCell id="S3K7yjeRhsTaSC5J15aU-44" value="" style="edgeStyle=orthogonalEdgeStyle;rounded=0;orthogonalLoop=1;jettySize=auto;html=1;" edge="1" parent="S3K7yjeRhsTaSC5J15aU-45" source="S3K7yjeRhsTaSC5J15aU-42" target="S3K7yjeRhsTaSC5J15aU-40">
          <mxGeometry relative="1" as="geometry" />
        </mxCell>
        <mxCell id="S3K7yjeRhsTaSC5J15aU-42" value="&lt;div style=&quot;background-color: rgb(255, 255, 255); padding: 0px 0px 0px 2px; line-height: 20%;&quot;&gt;&lt;div style=&quot;font-family: Consolas; font-size: 10pt; line-height: 20%;&quot;&gt;&lt;p class=&quot;MsoNormal&quot;&gt;error&amp;nbsp;= HAL_CAN_Start(&amp;amp;hcan)&amp;nbsp;&lt;/p&gt;&lt;p class=&quot;MsoNormal&quot;&gt;||&lt;span style=&quot;font-size: 10pt;&quot;&gt;&amp;nbsp;HAL_CAN_ActivateNotification(&amp;amp;hcan,&amp;nbsp;&lt;/span&gt;&lt;/p&gt;&lt;p class=&quot;MsoNormal&quot;&gt;&lt;span style=&quot;font-size: 10pt;&quot;&gt;CAN_IT_RX_FIFO0_MSG_PENDING&amp;nbsp;&lt;/span&gt;&lt;/p&gt;&lt;p class=&quot;MsoNormal&quot;&gt;&lt;span style=&quot;font-size: 10pt;&quot;&gt;|&lt;/span&gt;&lt;span style=&quot;font-size: 10pt;&quot;&gt;&amp;nbsp;CAN_IT_RX_FIFO1_MSG_PENDING&amp;nbsp;&lt;/span&gt;&lt;/p&gt;&lt;p class=&quot;MsoNormal&quot;&gt;&lt;span style=&quot;font-size: 10pt;&quot;&gt;|&lt;/span&gt;&lt;span style=&quot;font-size: 10pt;&quot;&gt;&amp;nbsp;CAN_IT_TX_MAILBOX_EMPTY&amp;nbsp;&amp;nbsp;&lt;/span&gt;&lt;/p&gt;&lt;p class=&quot;MsoNormal&quot;&gt;&lt;span style=&quot;font-size: 10pt;&quot;&gt;|&amp;nbsp;&lt;/span&gt;&lt;span style=&quot;font-size: 10pt;&quot;&gt;CAN_IT_ERROR_PASSIVE&amp;nbsp;&lt;/span&gt;&lt;/p&gt;&lt;p class=&quot;MsoNormal&quot;&gt;&lt;span style=&quot;font-size: 10pt;&quot;&gt;|&amp;nbsp;&lt;/span&gt;&lt;span style=&quot;font-size: 10pt;&quot;&gt;CAN_IT_BUSOFF&amp;nbsp;&lt;/span&gt;&lt;/p&gt;&lt;p style=&quot;line-height: 20%;&quot; class=&quot;MsoNormal&quot;&gt;&lt;span style=&quot;font-size: 10pt;&quot;&gt;|&amp;nbsp;&lt;/span&gt;&lt;span style=&quot;font-size: 10pt;&quot;&gt;CAN_IT_ERROR)&lt;/span&gt;&lt;/p&gt;&lt;/div&gt;&lt;/div&gt;" style="rounded=0;whiteSpace=wrap;html=1;align=left;" vertex="1" parent="S3K7yjeRhsTaSC5J15aU-45">
          <mxGeometry x="29.9849999999999" y="190" width="290" height="140" as="geometry" />
        </mxCell>
        <mxCell id="S3K7yjeRhsTaSC5J15aU-43" value="" style="edgeStyle=orthogonalEdgeStyle;rounded=0;orthogonalLoop=1;jettySize=auto;html=1;" edge="1" parent="S3K7yjeRhsTaSC5J15aU-45" source="S3K7yjeRhsTaSC5J15aU-28" target="S3K7yjeRhsTaSC5J15aU-42">
          <mxGeometry relative="1" as="geometry" />
        </mxCell>
      </root>
    </mxGraphModel>
  </diagram>
</mxfile>
